<?xml version="1.0" standalone="no"?>
<!DOCTYPE svg PUBLIC "-//W3C//DTD SVG 20010904//EN"
 "http://www.w3.org/TR/2001/REC-SVG-20010904/DTD/svg10.dtd">
<svg version="1.0" xmlns="http://www.w3.org/2000/svg"
 width="2846.000000pt" height="574.000000pt" viewBox="0 0 2846.000000 574.000000"
 preserveAspectRatio="xMidYMid meet">
<metadata>
Created by potrace 1.16, written by Peter Selinger 2001-2019
</metadata>
<g transform="translate(0.000000,574.000000) scale(0.100000,-0.100000)"
fill="#000000" stroke="none">
<path d="M136 5711 c6 -28 4 -31 -18 -31 -22 0 -25 -4 -22 -30 2 -16 -1 -30
-6 -30 -6 0 -10 -11 -10 -25 0 -32 -41 -55 -65 -35 -13 11 -15 -1 -15 -111 1
-122 1 -124 19 -102 19 22 20 22 42 5 l22 -19 -24 -16 c-13 -10 -31 -17 -41
-17 -16 0 -17 -20 -18 -266 0 -200 3 -271 12 -282 10 -12 10 -16 0 -19 -9 -4
-12 -486 -12 -2369 l0 -2364 5963 1 c4033 0 5954 4 5937 10 -14 6 -38 17 -53
25 -16 8 -35 14 -43 14 -14 0 -22 3 -82 33 -19 9 -42 17 -53 17 -19 0 -27 3
-86 34 -17 9 -40 16 -51 16 -12 0 -24 4 -27 10 -3 5 -15 10 -26 10 -19 0 -26
2 -87 33 -19 9 -42 17 -51 17 -16 0 -59 17 -103 41 -10 5 -27 9 -37 9 -11 0
-23 5 -26 10 -3 6 -15 10 -25 10 -10 0 -33 8 -52 17 -60 30 -68 33 -82 33 -7
0 -27 7 -42 15 -16 8 -37 15 -46 15 -9 0 -20 5 -23 10 -3 6 -15 10 -26 10 -10
0 -27 4 -37 9 -9 5 -37 17 -62 26 -25 9 -53 21 -62 26 -10 5 -26 9 -35 9 -10
0 -27 7 -37 15 -11 8 -30 15 -42 15 -13 0 -26 5 -29 10 -3 6 -14 10 -24 10
-16 0 -59 17 -103 41 -10 5 -27 9 -37 9 -11 0 -23 5 -26 10 -3 6 -16 10 -28
10 -12 0 -31 7 -41 15 -11 8 -30 15 -42 15 -13 0 -26 4 -29 10 -3 5 -14 10
-24 10 -16 0 -59 17 -103 41 -10 5 -25 9 -33 9 -9 0 -27 7 -40 16 -15 10 -34
14 -49 10 -15 -4 -28 0 -36 9 -16 19 -46 19 -54 0 -3 -9 -12 -12 -21 -9 -10 4
-14 13 -10 22 9 25 -14 32 -105 32 -94 0 -127 -12 -149 -52 -14 -25 -14 -29 5
-55 13 -17 34 -30 55 -34 29 -5 30 -7 9 -9 -66 -8 -100 18 -100 75 0 53 30 81
101 94 43 7 67 7 81 0 11 -6 27 -8 35 -5 14 6 14 9 -2 26 -17 19 -17 20 2 20
11 0 26 -7 33 -15 14 -17 70 -21 70 -5 0 6 5 10 10 10 6 0 10 -13 10 -30 0
-25 4 -30 25 -30 14 0 43 -11 65 -25 22 -14 48 -25 59 -25 11 0 23 -5 26 -10
3 -6 14 -10 23 -10 9 0 30 -7 46 -15 15 -8 35 -15 42 -15 8 0 22 -4 32 -9 46
-23 95 -41 112 -41 10 0 22 -4 25 -10 3 -5 16 -10 29 -10 12 0 26 -4 32 -9 5
-4 34 -16 64 -27 30 -10 59 -22 64 -26 6 -4 18 -8 28 -8 16 0 66 -19 110 -41
10 -5 24 -9 32 -9 7 0 27 -7 42 -15 16 -8 37 -15 46 -15 9 0 20 -4 23 -10 3
-5 15 -10 26 -10 10 0 27 -4 37 -9 44 -22 94 -41 110 -41 10 0 22 -4 28 -8 5
-4 34 -16 64 -26 30 -11 59 -23 64 -27 6 -5 20 -9 32 -9 13 0 26 -4 29 -10 3
-5 16 -10 29 -10 12 0 46 -11 74 -25 29 -14 58 -25 64 -25 16 0 105 -33 114
-43 4 -4 17 -7 29 -7 11 0 25 -4 31 -8 5 -4 34 -16 64 -26 30 -11 59 -23 64
-27 6 -5 22 -9 37 -9 15 0 30 -4 33 -9 7 -10 97 -41 120 -41 9 0 16 -4 16 -10
0 -5 10 -10 23 -10 12 -1 33 -7 47 -15 21 -12 136 -14 720 -14 637 0 692 1
655 15 -22 9 -49 20 -60 24 -11 5 -42 16 -70 25 -27 10 -59 21 -70 25 -11 5
-58 21 -105 36 -47 15 -98 33 -115 39 -16 7 -48 18 -70 25 -22 7 -48 16 -57
21 -10 5 -23 9 -30 9 -7 0 -43 11 -80 25 -38 14 -101 37 -140 51 -40 14 -82
29 -93 34 -11 5 -42 16 -70 25 -27 10 -59 21 -70 25 -11 5 -42 16 -70 25 -27
9 -58 21 -67 26 -10 5 -25 9 -33 9 -8 0 -23 4 -33 9 -9 5 -42 16 -72 26 -30 9
-68 23 -85 30 -16 7 -49 19 -72 26 -24 7 -43 15 -43 19 0 9 59 -1 66 -11 3 -5
13 -9 22 -9 14 0 115 -34 177 -60 11 -5 45 -16 75 -26 30 -10 59 -22 64 -26 6
-4 18 -8 28 -8 16 0 66 -19 110 -41 10 -5 29 -9 42 -9 14 0 27 -4 30 -9 3 -5
18 -11 33 -14 16 -3 66 -19 113 -37 47 -17 95 -34 108 -37 12 -3 25 -9 28 -14
3 -5 16 -9 29 -9 13 0 27 -4 30 -10 3 -5 13 -10 22 -10 8 0 29 -6 46 -14 18
-7 58 -21 89 -31 32 -9 60 -21 64 -26 3 -5 15 -9 28 -9 12 0 26 -4 31 -8 6 -5
30 -14 55 -21 25 -7 59 -19 75 -26 17 -7 53 -20 80 -28 76 -24 124 -43 131
-50 4 -4 379 -7 832 -7 837 0 844 0 929 37 17 7 37 13 45 13 8 0 18 4 23 8 9
7 44 20 103 37 12 3 22 2 22 -3 0 -5 -12 -12 -27 -15 -29 -5 -205 -66 -212
-73 -3 -2 351 -3 785 -2 l789 3 70 29 c39 16 88 34 110 41 50 15 75 24 97 36
10 5 26 9 37 9 11 0 32 6 48 14 36 18 73 33 98 40 30 8 137 45 160 55 11 5 45
17 75 27 60 18 80 25 125 44 17 7 68 25 115 40 163 55 311 108 317 114 4 3 17
6 29 6 13 0 25 4 28 9 3 5 16 11 28 14 13 3 75 24 138 47 63 23 124 44 135 47
23 5 44 14 98 37 21 9 46 16 57 16 10 0 22 5 25 10 3 6 14 10 24 10 10 0 32 7
47 15 16 8 36 15 44 15 8 0 28 11 44 25 17 15 37 23 46 20 24 -8 52 5 46 21
-6 16 3 44 14 44 4 0 10 -9 13 -20 4 -17 8 -18 31 -7 14 7 26 15 26 20 0 4 6
7 13 7 16 0 100 79 116 108 13 25 31 29 31 8 0 -20 -37 -63 -92 -106 -52 -42
-49 -55 10 -45 46 7 130 -10 154 -32 25 -22 25 -104 0 -126 -20 -19 -97 -23
-107 -7 -4 6 10 9 36 8 51 -2 73 21 64 67 -10 53 -37 65 -152 65 l-103 0 0
-25 c0 -29 -16 -32 -43 -8 -18 17 -19 17 -28 0 -7 -12 -23 -17 -54 -17 -24 0
-47 -4 -50 -10 -3 -5 -17 -10 -29 -10 -13 0 -29 -7 -36 -15 -7 -8 -25 -15 -41
-15 -16 0 -29 -4 -29 -10 0 -5 -10 -10 -23 -10 -13 0 -32 -7 -43 -15 -10 -8
-29 -15 -41 -15 -12 0 -25 -5 -28 -10 -3 -6 -16 -10 -29 -10 -12 0 -26 -4 -31
-9 -6 -6 -23 -12 -39 -15 -16 -3 -34 -10 -40 -16 -5 -5 -18 -10 -28 -10 -10 0
-26 -4 -36 -9 -42 -21 -94 -41 -107 -41 -9 0 -23 -4 -33 -9 -9 -5 -37 -17 -62
-26 -25 -10 -54 -21 -65 -25 -11 -4 -46 -16 -77 -25 -32 -9 -60 -21 -64 -26
-3 -5 -16 -9 -29 -9 -13 0 -27 -4 -30 -10 -3 -5 -14 -10 -23 -10 -9 0 -30 -7
-46 -15 -15 -8 -37 -15 -47 -15 -10 0 -21 -5 -24 -10 -3 -6 -14 -10 -23 -10
-9 0 -30 -7 -46 -15 -15 -8 -36 -15 -45 -15 -9 0 -21 -4 -26 -8 -6 -5 -30 -14
-55 -21 -25 -7 -58 -19 -75 -26 -16 -8 -51 -21 -77 -29 -26 -9 -56 -20 -65
-25 -10 -5 -38 -15 -63 -22 -25 -7 -56 -19 -70 -26 -14 -7 -32 -13 -40 -13 -9
0 -20 -4 -25 -8 -6 -5 -37 -17 -70 -27 -33 -11 -64 -23 -70 -27 -5 -4 2613 -8
5818 -8 l5827 0 0 2710 c0 1800 -3 2710 -10 2710 -5 0 -10 7 -10 15 0 8 5 15
10 15 6 0 10 11 10 25 0 18 -5 25 -19 25 -11 0 -23 5 -26 10 -4 6 -16 8 -27 4
-13 -4 -24 0 -33 13 -9 10 -14 13 -15 6 0 -7 -4 -13 -10 -13 -14 0 -31 37 -24
54 8 20 34 21 34 1 0 -8 9 -15 19 -15 11 0 23 -5 26 -10 3 -6 22 -10 41 -10
l34 0 0 73 c0 41 -4 66 -8 59 -12 -18 -42 -4 -42 20 0 16 5 19 25 16 19 -4 25
-1 25 14 0 16 -8 18 -65 17 -53 -1 -63 -4 -54 -15 6 -7 8 -18 4 -24 -10 -17
-35 -11 -60 14 -21 21 -34 24 -82 23 -32 0 -61 -6 -65 -11 -5 -7 -8 -7 -8 2 0
6 -11 12 -25 12 -14 0 -25 -5 -25 -12 0 -9 -3 -9 -12 0 -15 15 -188 17 -188 2
0 -9 21 -15 43 -11 4 0 7 -4 7 -10 0 -6 6 -9 13 -6 15 5 52 -19 40 -26 -13 -7
-73 4 -73 14 0 5 -5 9 -11 9 -15 0 -39 26 -32 34 4 3 -5 6 -20 6 -17 0 -28 -7
-32 -20 -3 -11 -11 -20 -17 -20 -6 0 -8 3 -5 7 4 3 -3 13 -14 21 -18 12 -23
12 -30 1 -9 -15 9 -31 25 -22 5 4 7 -1 3 -10 -4 -11 -1 -17 8 -17 12 0 12 -3
-2 -19 -9 -11 -21 -17 -26 -14 -5 3 -7 0 -5 -8 12 -34 -35 -68 -48 -35 -7 19
24 66 45 66 11 0 12 3 4 8 -6 4 -16 20 -22 35 l-11 27 -165 0 -165 0 -10 -25
c-5 -14 -16 -25 -24 -25 -18 0 -39 26 -31 39 4 7 -133 10 -427 10 -239 -1
-424 -5 -413 -9 19 -8 19 -9 -2 -9 -12 -1 -25 3 -28 9 -9 14 -82 12 -88 -2 -4
-10 -6 -10 -6 0 -1 16 -131 17 -131 1 0 -6 -9 -9 -20 -6 -17 4 -20 0 -20 -24
0 -19 -5 -29 -15 -29 -20 0 -31 28 -16 43 6 6 11 14 11 18 0 12 -84 8 -92 -5
-6 -8 -10 -7 -17 3 -7 10 -26 12 -82 7 -41 -3 -81 -6 -89 -5 -221 9 -307 9
-324 1 -38 -19 -66 -21 -66 -6 0 11 -36 13 -197 13 -109 0 -193 -3 -188 -7 13
-9 19 -52 7 -52 -6 0 -24 14 -42 30 l-33 30 -189 -1 c-175 -1 -192 -3 -210
-21 -20 -20 -20 -20 -34 1 -14 19 -25 21 -119 21 -74 0 -105 -4 -108 -12 -4
-10 -7 -10 -18 0 -10 9 -136 12 -559 12 -300 0 -551 -4 -559 -9 -7 -5 -10 -14
-7 -20 5 -7 -1 -10 -15 -8 -17 1 -22 -4 -24 -22 -1 -14 -7 -27 -13 -29 -7 -2
-12 -10 -12 -18 0 -9 -9 -13 -25 -12 -28 3 -34 25 -8 35 13 5 12 8 -8 16 -24
9 -24 9 9 21 19 6 38 19 42 27 8 13 1 16 -40 17 -37 1 -48 -2 -44 -12 3 -8 -2
-16 -12 -20 -12 -5 -15 -14 -10 -37 3 -19 0 -42 -9 -59 -14 -28 -15 -28 -46
-13 -20 10 -28 20 -25 30 3 8 6 25 6 38 0 15 7 25 21 28 13 4 19 12 17 24 -3
16 -17 18 -158 19 -85 1 -160 -3 -167 -8 -9 -8 -9 -14 0 -29 9 -15 9 -21 -1
-27 -9 -6 -2 -20 24 -50 25 -30 34 -48 29 -60 -6 -14 -9 -12 -15 10 -10 33
-33 58 -54 58 -9 0 -16 7 -16 15 0 16 -16 20 -24 6 -3 -5 -15 -7 -25 -4 -18 5
-18 7 -4 41 8 21 20 40 27 44 6 4 -21 7 -61 6 -40 0 -70 -5 -67 -10 3 -4 14
-8 25 -8 10 0 19 -4 19 -10 0 -5 -7 -10 -15 -10 -8 0 -15 -4 -15 -9 0 -18 -32
-42 -48 -36 -8 3 -21 -3 -29 -15 -30 -43 -64 -14 -39 34 14 28 11 70 -5 60 -5
-3 -9 -16 -9 -29 0 -14 -9 -29 -20 -35 -11 -6 -20 -17 -20 -25 0 -18 -49 -45
-79 -42 -11 1 -21 8 -21 16 0 8 3 11 6 8 4 -3 15 -2 26 4 19 10 18 11 -6 44
-18 23 -22 35 -13 38 7 3 5 6 -5 6 -10 1 -18 6 -18 11 0 6 -11 10 -24 10 -16
0 -26 -7 -29 -21 -7 -24 -33 -20 -31 5 2 19 -42 23 -49 4 -4 -10 -6 -10 -6 0
-1 7 -17 12 -45 12 -26 0 -47 -5 -50 -12 -5 -10 -7 -10 -12 0 -8 16 -204 17
-204 1 0 -7 -10 -9 -24 -5 -30 7 -42 -7 -21 -24 22 -18 18 -26 -12 -24 -22 0
-29 7 -35 32 -7 27 -13 32 -37 32 -16 0 -31 -6 -34 -12 -3 -10 -7 -10 -19 0
-13 10 -18 9 -28 -3 -16 -19 -40 -20 -40 -1 0 11 -49 14 -285 15 -157 1 -284
-2 -283 -6 2 -4 -1 -8 -7 -8 -5 0 -9 3 -8 7 2 5 -258 8 -576 8 -575 0 -580 0
-594 -21 -14 -19 -35 -11 -23 9 3 4 -58 9 -135 10 -134 3 -139 2 -139 -18 0
-11 -4 -20 -10 -20 -9 0 -14 14 -11 33 1 4 -43 6 -96 5 -94 -3 -98 -4 -97 -25
0 -13 -3 -23 -8 -23 -4 0 -8 4 -8 8 0 13 -57 42 -83 42 -20 0 -24 -4 -20 -20
4 -15 0 -20 -16 -20 -32 0 -35 -1 -48 -12 -7 -5 -17 -7 -23 -3 -7 4 -10 0 -8
-11 5 -32 -35 -23 -47 9 -8 24 -6 31 10 43 17 13 14 14 -32 14 -31 0 -54 -5
-57 -12 -5 -10 -7 -10 -12 0 -9 19 -114 16 -114 -3 0 -8 -9 -15 -20 -15 -12 0
-17 -5 -14 -14 5 -14 -20 -46 -38 -46 -11 0 -75 66 -81 84 -3 8 -11 7 -26 -1
-11 -7 -28 -13 -36 -13 -8 0 -15 -4 -15 -10 0 -5 5 -10 11 -10 5 0 7 -5 3 -11
-3 -6 0 -15 7 -20 7 -4 10 -12 5 -16 -5 -4 -11 -2 -13 5 -3 6 -11 12 -19 12
-8 0 -14 8 -14 18 0 15 -6 18 -32 14 l-33 -4 30 21 30 21 -55 0 c-31 0 -61 -5
-67 -11 -8 -8 -13 -8 -17 0 -4 6 -18 11 -31 11 -18 0 -25 -7 -31 -32 -4 -18
-7 -39 -5 -47 1 -7 -4 -11 -11 -9 -8 3 -13 21 -13 46 0 32 -3 40 -17 39 -10
-1 -20 -7 -22 -14 -3 -7 -10 -13 -17 -13 -6 0 -9 6 -6 13 7 18 -124 22 -135 4
-6 -9 -8 -9 -8 1 0 7 -13 12 -29 12 -21 0 -30 -6 -35 -22 -3 -13 -18 -36 -32
-52 -24 -27 -26 -28 -39 -10 -8 11 -15 22 -15 27 0 4 -9 7 -20 7 -13 0 -20 7
-20 20 0 21 15 27 25 10 7 -12 25 -4 25 11 0 5 -46 9 -107 8 -60 0 -101 -3
-93 -6 23 -9 28 -23 21 -52 -10 -34 -44 -40 -65 -10 -15 21 -14 25 6 46 l21
23 -42 0 c-36 0 -42 -2 -32 -14 10 -11 7 -19 -10 -35 -32 -30 -42 -26 -35 14
l7 35 -41 0 c-43 0 -48 -8 -30 -55 7 -19 6 -32 -5 -49 -8 -12 -12 -26 -8 -29
3 -4 -2 -14 -13 -22 -10 -8 -15 -15 -11 -15 14 0 -13 -40 -28 -40 -18 0 -20
41 -4 57 18 18 2 62 -27 75 -15 7 -27 23 -31 39 -6 29 -25 38 -90 38 -28 0
-34 -5 -41 -32 -11 -40 -4 -67 14 -60 8 3 14 1 14 -5 0 -5 -16 -10 -35 -9 -19
1 -30 4 -24 8 6 3 0 9 -15 13 -14 3 -26 11 -26 16 0 6 -7 10 -15 10 -8 0 -15
5 -15 10 0 6 5 10 10 10 6 0 10 6 10 14 0 9 -7 12 -20 9 -11 -3 -20 0 -20 6 0
6 -16 11 -35 11 -33 0 -48 -14 -23 -22 6 -2 8 -10 4 -16 -12 -20 -26 -13 -26
14 l0 25 -97 -2 c-99 -3 -123 -11 -123 -43 0 -9 -7 -16 -16 -16 -11 0 -14 7
-10 30 l4 30 -58 0 c-32 0 -70 -6 -85 -14 -15 -8 -33 -12 -40 -10 -8 3 -15 -8
-19 -30 -7 -35 -26 -51 -26 -22 0 8 -7 22 -16 31 -9 8 -13 22 -10 30 4 12 -5
15 -43 15 -30 0 -52 -5 -55 -12 -5 -10 -7 -10 -12 0 -8 16 -195 17 -212 0 -9
-9 -12 -9 -12 0 0 7 -9 12 -20 12 -11 0 -20 -4 -20 -10 0 -5 5 -10 10 -10 6 0
10 -5 10 -11 0 -8 -4 -9 -13 0 -8 6 -17 8 -20 4 -4 -3 -9 2 -13 11 -5 13 -20
16 -73 15 -68 0 -68 -2 4 -29 86 -33 112 -43 127 -51 10 -5 27 -9 37 -9 11 0
23 -4 26 -10 3 -6 15 -10 26 -10 10 0 42 -11 71 -25 55 -26 78 -31 78 -15 0 5
11 -2 25 -15 13 -14 33 -25 45 -25 11 0 39 -9 63 -20 23 -11 55 -21 70 -22 16
-1 33 -8 39 -15 6 -7 19 -13 29 -13 10 0 21 -5 24 -10 3 -6 17 -10 31 -10 14
0 22 4 19 10 -3 6 -2 10 3 10 5 0 12 -8 14 -18 3 -12 24 -25 53 -34 44 -15 48
-15 66 3 10 10 14 19 7 19 -6 0 -9 2 -7 5 3 2 15 2 27 -2 21 -5 22 -7 7 -29
-14 -21 -13 -24 4 -34 11 -5 25 -10 31 -10 6 0 30 -9 52 -20 23 -11 48 -20 55
-20 11 0 65 -21 105 -41 29 -15 35 -11 30 20 -5 37 12 47 38 21 20 -20 28 -46
11 -36 -5 3 -11 -1 -15 -9 -6 -16 21 -35 51 -35 11 0 23 -4 28 -8 6 -5 30 -15
55 -22 25 -7 56 -19 70 -26 14 -6 45 -18 70 -25 25 -7 56 -19 70 -26 14 -7 32
-13 40 -13 9 0 20 -4 25 -8 9 -8 41 -18 113 -37 12 -4 22 -11 22 -16 0 -5 11
-9 24 -9 14 0 27 -4 30 -9 3 -5 23 -12 43 -16 21 -4 43 -10 48 -15 20 -15 65
-18 65 -4 0 19 6 18 38 -11 16 -14 37 -32 48 -39 23 -18 19 -22 -29 -29 -33
-5 -39 -3 -49 19 -12 26 -46 40 -78 31 -12 -3 -27 2 -37 11 -24 25 -57 39
-105 47 -24 4 -54 16 -67 26 -29 23 -59 24 -83 2 -21 -19 -37 -10 -19 11 10
12 5 18 -33 35 -25 12 -52 21 -60 21 -9 0 -16 5 -16 10 0 6 -13 10 -29 10 -17
0 -32 4 -35 9 -3 4 -24 11 -46 15 -22 3 -40 11 -40 16 0 6 -9 10 -19 10 -11 0
-23 4 -26 10 -3 5 -17 10 -30 10 -13 0 -26 4 -30 9 -3 5 -20 13 -37 17 -18 3
-39 10 -48 14 -8 4 -33 13 -55 20 -22 7 -46 15 -52 17 -7 3 -13 -2 -13 -12 0
-10 -6 -15 -17 -13 -10 2 -17 11 -15 20 3 18 -43 43 -123 68 -22 7 -49 16 -60
21 -11 4 -42 15 -70 25 -27 10 -53 22 -56 27 -4 5 -9 4 -13 -2 -4 -6 -14 -11
-22 -11 -8 0 -12 5 -9 10 3 6 -1 10 -9 10 -9 0 -16 5 -16 10 0 6 -8 10 -19 10
-19 0 -62 16 -139 51 -23 10 -54 20 -68 21 -15 2 -29 8 -31 15 -3 7 -15 13
-27 13 -23 0 -79 19 -113 38 -12 7 -29 12 -37 12 -16 0 -23 3 -84 33 -19 9
-42 17 -52 17 -10 0 -22 5 -25 10 -3 6 -17 10 -31 10 -13 0 -33 5 -44 10 -11
6 -29 15 -40 20 -29 14 -50 12 -50 -5 0 -8 -4 -15 -10 -15 -19 0 -10 -28 10
-33 20 -5 27 -31 11 -41 -18 -12 -45 22 -45 58 0 32 -2 35 -23 30 -16 -4 -23
-2 -23 7 0 11 -3 11 -10 -1 -6 -10 -10 -11 -10 -2 0 17 -488 16 -509 -1 -11
-9 -15 -9 -18 1 -4 9 -65 12 -268 11 -252 0 -263 -1 -268 -20 -3 -10 -10 -19
-17 -19 -6 0 -9 4 -6 9 12 20 -24 32 -86 29 -54 -3 -59 -4 -33 -12 17 -4 44
-14 60 -21 86 -37 106 -41 117 -22 7 14 13 15 23 7 8 -6 12 -17 9 -23 -4 -12
68 -47 97 -47 9 0 19 -3 23 -7 4 -4 37 -18 74 -29 60 -20 69 -21 84 -7 15 13
18 12 32 -15 10 -20 26 -32 48 -37 24 -6 28 -9 14 -12 -10 -3 -29 1 -42 7 -12
7 -32 10 -43 7 -13 -3 -21 0 -21 8 0 15 -22 25 -56 25 -13 0 -24 3 -24 8 0 4
-28 16 -63 26 -34 10 -66 22 -72 26 -5 4 -25 10 -42 13 -18 4 -52 16 -75 27
-23 11 -52 20 -65 20 -13 0 -23 5 -23 10 0 6 -9 10 -20 10 -12 0 -34 7 -50 15
-16 8 -57 18 -90 22 -59 6 -60 6 -60 -20 0 -14 -4 -29 -10 -32 -5 -3 -10 -15
-10 -25 0 -27 -97 -242 -112 -248 -4 -2 -8 -8 -8 -13 0 -15 -81 -139 -91 -139
-14 0 -11 34 6 66 8 16 15 50 15 75 0 26 7 63 15 82 8 20 15 50 15 66 0 16 5
33 10 36 6 3 10 17 10 31 0 13 4 32 9 42 6 9 16 32 25 50 l14 32 -48 0 c-47 0
-48 -1 -54 -35 -4 -20 -5 -39 -2 -44 3 -5 -1 -33 -8 -62 -7 -30 -16 -92 -20
-138 -6 -85 -33 -201 -46 -201 -7 0 -16 32 -26 95 -2 11 -8 47 -14 80 -6 33
-15 94 -20 135 -6 41 -15 79 -20 84 -6 6 -10 27 -10 48 l0 38 -44 0 c-41 0
-43 -1 -39 -25 3 -13 11 -30 19 -36 8 -6 14 -24 14 -40 0 -15 5 -31 10 -34 6
-3 10 -20 10 -36 0 -17 6 -42 13 -57 7 -15 15 -45 16 -67 2 -22 7 -48 12 -57
12 -23 11 -118 -1 -118 -5 0 -10 5 -10 11 0 6 -8 23 -19 37 -18 27 -68 117
-101 182 -16 32 -29 61 -59 130 -5 14 -12 38 -13 55 -4 43 -43 54 -100 31 -75
-32 -82 -34 -123 -47 -71 -21 -95 -31 -95 -40 0 -5 -7 -6 -15 -3 -8 4 -21 2
-28 -4 -6 -5 -24 -12 -39 -16 -17 -4 -28 -13 -28 -24 0 -15 -2 -15 -10 -2 -5
8 -10 10 -10 4 0 -6 -13 -11 -30 -12 -20 0 -30 4 -30 14 0 8 10 14 25 14 14 0
33 4 43 9 19 10 65 25 137 48 28 8 59 19 70 24 11 4 38 16 60 25 22 9 45 16
52 15 6 -1 14 3 17 8 4 6 -26 8 -76 6 -106 -4 -110 -5 -116 -27 -2 -10 -10
-18 -17 -18 -18 0 -26 25 -12 41 10 10 9 11 -3 2 -22 -16 -80 -27 -80 -15 0 6
6 12 13 15 6 3 -79 5 -190 6 -128 0 -203 -3 -203 -9 0 -6 -5 -10 -11 -10 -5 0
-7 4 -4 10 4 6 -156 10 -449 10 -294 0 -457 -3 -461 -10 -3 -5 -17 -10 -30
-10 -13 0 -27 -4 -30 -10 -3 -5 -14 -10 -24 -10 -10 0 -32 -7 -47 -15 -16 -8
-37 -15 -46 -15 -9 0 -20 -4 -23 -10 -3 -5 -17 -10 -30 -10 -13 0 -27 -4 -30
-10 -3 -5 -19 -10 -34 -10 -16 0 -34 -7 -41 -15 -7 -8 -20 -15 -29 -15 -19 0
-77 -21 -108 -38 -12 -7 -30 -12 -40 -12 -11 0 -23 -4 -29 -8 -5 -5 -29 -14
-54 -21 -25 -7 -58 -19 -73 -27 -16 -8 -37 -14 -47 -14 -10 0 -22 -4 -25 -10
-3 -5 -16 -10 -28 -10 -12 0 -31 -7 -41 -15 -11 -8 -30 -15 -42 -15 -13 0 -26
-4 -29 -10 -3 -5 -17 -10 -30 -10 -13 0 -27 -4 -30 -10 -3 -5 -16 -10 -28 -10
-13 0 -31 -6 -42 -13 -11 -7 -40 -19 -65 -26 -25 -7 -57 -19 -72 -27 -14 -8
-35 -14 -46 -14 -12 0 -24 -4 -27 -10 -3 -5 -17 -10 -30 -10 -13 0 -27 -4 -30
-10 -3 -5 -14 -10 -23 -10 -9 0 -30 -7 -46 -15 -15 -8 -37 -15 -47 -15 -10 0
-21 -4 -24 -10 -3 -5 -16 -10 -29 -10 -12 0 -26 -4 -32 -9 -15 -15 -54 -23
-54 -12 0 12 64 41 91 41 11 0 19 5 19 10 0 6 8 10 18 10 9 0 30 7 46 15 15 8
37 15 47 15 10 0 21 5 24 10 3 6 18 10 32 10 23 0 24 2 12 18 -7 9 -9 14 -5
10 5 -4 15 -3 23 3 7 7 13 7 13 2 0 -12 48 -5 56 8 3 5 16 9 28 9 13 0 37 7
52 15 16 8 37 15 46 15 9 0 20 5 23 10 3 6 13 10 21 10 9 0 22 7 30 15 9 8 24
15 35 15 11 0 18 3 16 8 -3 4 13 8 35 9 22 0 45 6 51 12 6 6 21 11 33 11 12 0
37 8 56 17 60 30 68 33 82 33 7 0 27 7 42 15 16 8 36 15 45 15 8 0 19 4 25 8
5 5 36 17 69 27 33 10 67 22 75 26 8 4 34 13 57 20 34 10 41 15 32 26 -9 10
-8 17 1 28 18 22 43 19 37 -5 -4 -17 -1 -18 27 -13 17 3 36 9 41 13 6 3 30 12
55 19 25 7 54 17 65 22 11 4 -257 8 -602 8 -606 0 -623 -1 -633 -20 -13 -23
-30 -25 -30 -3 0 8 5 12 10 9 6 -3 10 -2 10 4 0 7 -156 10 -470 11 -424 0
-470 -1 -470 -16 0 -8 -6 -14 -12 -11 -7 2 -12 10 -10 16 1 8 -112 11 -418 11
-329 0 -420 -3 -420 -12 0 -10 -2 -10 -8 -1 -5 8 -56 12 -170 12 -133 1 -162
-2 -162 -14 0 -7 -5 -17 -12 -21 -8 -5 -9 -2 -5 10 5 12 3 16 -5 13 -7 -2 -12
-11 -10 -21 5 -26 -15 -18 -22 9 -5 19 -13 25 -35 25 -30 0 -48 -29 -29 -48 5
-5 3 -14 -7 -22 -8 -7 -15 -18 -15 -25 0 -20 -59 -25 -69 -6 -12 24 -2 41 25
41 16 0 24 6 24 16 0 9 8 23 18 30 16 12 15 13 -5 14 -13 0 -23 -4 -23 -10 0
-5 -10 -18 -22 -30 l-22 -20 -23 21 c-12 12 -20 26 -17 30 3 5 -221 9 -498 9
-339 -1 -497 -4 -486 -11 19 -11 13 -39 -8 -39 -8 0 -14 -6 -15 -12 0 -7 -2
-21 -4 -30 -2 -11 2 -15 11 -11 17 6 19 -34 4 -57 -8 -12 -12 -13 -19 -2 -6
10 -21 12 -56 6 l-48 -7 23 31 c13 17 27 29 31 26 4 -2 10 0 14 6 3 5 1 10 -4
10 -6 0 -11 10 -11 23 0 18 2 19 10 7 8 -12 10 -9 10 13 0 24 3 26 19 18 10
-6 21 -8 25 -4 3 3 -6 12 -20 20 -29 15 -179 19 -170 4 4 -5 -2 -7 -12 -4 -10
2 -24 -3 -31 -11 -18 -22 -31 -20 -31 4 0 15 -7 20 -29 20 -17 0 -33 -5 -36
-10 -4 -6 -13 -7 -23 -2 -9 4 -57 9 -106 11 -66 2 -91 0 -97 -10 -5 -8 -9 -9
-9 -4 0 6 -33 12 -77 14 l-78 3 27 -26 c25 -22 26 -28 17 -56 -9 -24 -17 -30
-33 -28 -16 2 -20 9 -18 31 3 25 -12 39 -20 19 -4 -12 -78 -2 -78 9 0 8 22 13
42 10 4 0 6 8 5 19 -1 19 -10 20 -250 20 -184 0 -246 -3 -241 -12 5 -8 2 -9
-12 -3 -10 4 -45 10 -76 13 -57 4 -58 4 -58 -21 0 -14 -5 -29 -11 -32 -18 -12
-69 16 -69 37 0 19 -7 19 -187 17 -103 -2 -181 -5 -175 -7 7 -2 12 -10 12 -18
0 -9 -4 -13 -9 -9 -5 3 -12 1 -16 -5 -3 -5 -1 -10 4 -10 17 0 13 -21 -6 -37
-17 -13 -16 -14 4 -10 12 3 27 -1 33 -8 8 -10 3 -15 -20 -23 -17 -6 -33 -19
-36 -29 -11 -37 -21 -47 -50 -50 -16 -1 -42 -5 -57 -8 -22 -4 -30 0 -39 20
-13 30 -28 33 -21 5 4 -15 0 -20 -14 -20 -28 0 -50 64 -32 96 15 30 8 38 -26
30 -19 -5 -25 -11 -21 -23 4 -10 2 -14 -8 -10 -9 4 -17 -1 -21 -13 -11 -34
-29 -41 -64 -24 -39 20 -35 40 8 36 22 -1 31 2 31 13 0 8 9 15 20 15 11 0 20
6 20 14 0 30 76 25 111 -7 20 -19 21 -22 6 -25 -9 -2 -17 -10 -17 -18 0 -19
54 -19 70 1 14 17 5 36 -15 28 -9 -3 -15 1 -15 11 0 18 54 23 65 6 11 -17 25
-11 18 8 -11 28 -34 47 -42 34 -4 -6 -22 -13 -41 -14 -29 -2 -35 0 -35 16 0
10 -10 22 -22 27 -37 14 -815 10 -832 -4 -11 -9 -15 -9 -19 1 -3 10 -72 12
-317 12 -172 -1 -316 -4 -319 -7 -4 -4 -17 -8 -29 -10 -12 -2 -28 -11 -35 -20
-12 -16 -14 -15 -35 10 -19 24 -28 27 -74 24 -46 -2 -51 -4 -49 -24 2 -12 8
-29 16 -37 7 -9 11 -16 9 -17 -31 -6 -40 -5 -50 7 -6 8 -8 14 -4 14 4 0 2 7
-5 15 -7 8 -10 21 -7 30 5 12 -18 14 -168 14 -96 1 -175 -3 -175 -7 0 -4 12
-9 26 -10 24 -2 53 -26 54 -44 0 -5 -10 -8 -23 -8 -13 0 -28 -5 -35 -12 -19
-19 -49 16 -44 52 4 27 2 30 -23 30 -15 0 -34 -8 -41 -17 -13 -17 -15 -17 -28
0 -19 25 -250 26 -264 1 -8 -15 -10 -15 -15 0 -9 24 -34 19 -83 -15 -35 -26
-46 -30 -58 -20 -22 18 -9 39 27 44 18 2 -10 5 -60 5 -86 2 -93 1 -93 -17 0
-11 -5 -23 -10 -26 -15 -9 -42 15 -36 32 7 18 -284 19 -302 1 -9 -9 -12 -9
-12 0 0 9 -37 12 -135 12 -125 0 -137 -2 -157 -22 l-22 -22 -9 22 c-12 27 -51
29 -75 5 -16 -16 -17 -15 -20 1 -3 15 -21 16 -178 16 -160 -1 -212 -10 -149
-26 14 -3 25 -12 25 -19 0 -19 -40 -27 -47 -9 -3 8 -11 14 -18 14 -7 0 -15 8
-18 19 -4 17 -16 19 -101 20 -78 1 -95 -1 -90 -12 4 -11 -4 -14 -32 -11 -22 1
-42 -3 -48 -10 -14 -18 -76 -38 -76 -25 0 5 -4 9 -10 9 -5 0 -7 -7 -4 -15 4
-9 -1 -18 -11 -21 -13 -5 -14 -9 -4 -15 11 -6 11 -15 1 -41 -6 -18 -9 -44 -6
-58 5 -23 4 -24 -9 -7 -8 9 -21 17 -29 17 -9 0 -21 7 -29 16 -10 13 -8 19 14
40 28 25 28 50 0 40 -10 -4 -13 0 -11 12 2 11 13 17 29 17 25 1 38 10 68 48
13 17 9 18 -83 16 -63 -2 -92 -5 -82 -11 9 -5 16 -16 16 -23 0 -8 3 -14 8 -14
19 3 23 -2 12 -16 -10 -12 -16 -13 -29 -3 -13 11 -13 9 2 -14 16 -26 16 -28
-2 -38 -11 -5 -24 -10 -30 -10 -18 0 -12 18 7 23 13 4 12 5 -5 6 -28 1 -46
-30 -37 -64 5 -19 9 -23 19 -15 9 8 25 6 56 -4 23 -8 45 -13 48 -11 4 2 14 -3
25 -10 22 -17 13 -35 -19 -35 -27 0 -42 -16 -23 -23 10 -4 10 -6 0 -6 -8 -1
-27 12 -43 28 -25 25 -30 27 -38 14 -5 -9 -14 -13 -20 -9 -9 6 -9 11 0 22 9
11 8 14 -9 14 -11 0 -25 7 -32 14 -6 8 -32 16 -58 18 -48 3 -70 25 -33 35 30
8 26 23 -5 23 -21 0 -24 3 -15 13 6 8 25 12 43 11 28 -3 29 -2 9 4 -14 4 -26
14 -29 22 -3 12 -2 12 6 2 5 -7 13 -12 18 -11 21 4 34 -2 34 -15 0 -17 33 -27
51 -15 10 6 8 9 -8 9 -13 0 -23 3 -23 8 0 4 -3 17 -6 28 -8 29 24 41 42 17 12
-17 14 -17 31 0 17 17 17 18 0 11 -10 -4 -25 0 -35 8 -9 8 -39 16 -67 17 -33
1 -45 -2 -36 -8 7 -5 10 -14 7 -20 -11 -18 -26 -13 -26 9 0 13 -7 20 -19 20
-24 0 -33 -13 -46 -65 -6 -22 -14 -39 -18 -37 -4 1 -16 2 -27 2 -19 0 -20 1
-4 25 17 26 12 45 -12 45 -8 0 -14 7 -14 15 0 17 -38 20 -88 6 -20 -6 -32 -6
-32 0 0 5 -14 9 -31 9 -24 0 -30 -4 -25 -15 3 -9 0 -15 -10 -15 -8 0 -17 7
-20 15 -8 19 -94 21 -112 3 -8 -8 -15 -9 -20 -3 -4 6 -55 11 -114 13 l-108 3
6 -30z m18371 7 c6 -7 13 -25 17 -40 4 -19 14 -28 37 -33 20 -5 29 -11 25 -21
-3 -8 -1 -14 4 -14 6 0 10 -4 10 -9 0 -4 -11 -6 -24 -4 -26 5 -70 -13 -62 -26
3 -5 -12 -27 -33 -50 -38 -41 -59 -42 -46 -2 7 23 -18 45 -45 38 -11 -3 -23
-1 -26 4 -3 5 -10 7 -15 4 -5 -4 -9 -2 -9 3 0 16 -52 25 -62 10 -6 -10 -10
-10 -18 2 -5 8 -10 21 -10 28 0 6 -7 12 -15 12 -8 0 -15 -4 -15 -9 0 -14 -44
-21 -55 -9 -7 8 -6 9 4 3 11 -7 13 -2 7 25 -3 20 -1 45 6 62 13 27 28 38 28
18 0 -5 6 -7 14 -4 16 6 36 -24 36 -55 0 -19 16 -27 44 -22 4 1 13 -5 20 -13
14 -18 62 -33 51 -17 -4 7 -1 18 5 26 10 12 15 12 35 -1 33 -21 99 -15 103 10
3 11 0 16 -7 12 -6 -4 -11 -2 -11 5 0 9 -3 9 -14 0 -12 -10 -18 -9 -33 6 -23
23 -19 45 10 60 30 15 33 15 44 1z m-4664 -114 c31 -24 62 -44 67 -44 6 0 10
-6 10 -13 0 -7 23 -37 50 -67 39 -43 55 -70 71 -125 11 -38 25 -78 30 -87 13
-25 11 -56 -3 -61 -10 -3 -10 -9 -1 -28 18 -39 21 -53 12 -74 l-8 -20 -1 20
c-1 31 -30 57 -95 88 -33 16 -81 39 -107 51 -29 15 -51 20 -61 15 -10 -6 -26
2 -53 26 -21 19 -42 35 -47 35 -5 0 -22 10 -39 21 -31 23 -49 55 -41 77 6 14
74 16 101 4 9 -5 32 -16 50 -25 19 -9 38 -17 44 -17 28 0 152 -105 190 -161
13 -20 19 -22 29 -11 22 21 -14 72 -132 186 -98 94 -137 141 -155 186 -3 8
-10 25 -16 37 -14 28 -2 46 25 37 12 -4 48 -26 80 -50z m920 49 c3 -5 -1 -21
-7 -38 -9 -21 -10 -37 -3 -53 12 -27 3 -39 -18 -22 -12 10 -16 9 -21 -6 -13
-40 -28 -64 -44 -69 -24 -8 -130 -115 -130 -131 0 -8 -11 -19 -25 -24 -13 -5
-36 -23 -51 -39 -28 -32 -47 -33 -38 -3 21 63 83 188 104 207 11 10 20 22 20
26 0 19 112 115 167 144 32 17 40 18 46 8z m113 -253 c-3 -17 -21 -44 -41 -62
-20 -17 -45 -49 -55 -71 -23 -47 -16 -57 37 -57 43 0 83 -19 83 -40 0 -22 -52
-48 -110 -55 -25 -3 -57 -12 -72 -19 -15 -8 -31 -10 -39 -5 -8 5 -43 9 -78 9
-81 0 -128 -25 -129 -70 0 -16 -3 -39 -7 -49 -4 -14 0 -23 15 -31 31 -16 25
-34 -29 -79 -45 -38 -101 -125 -101 -156 0 -43 -55 -95 -101 -95 -28 0 -89 42
-89 61 0 9 -7 20 -16 23 -8 3 -14 14 -12 23 7 31 -29 88 -88 141 -48 44 -55
54 -44 67 8 9 29 15 58 15 l45 0 -6 51 c-5 43 -4 49 8 39 18 -15 35 -5 35 23
0 26 47 77 71 77 10 0 30 5 44 12 22 10 28 8 48 -10 34 -32 65 -95 72 -147 6
-37 11 -45 29 -45 35 0 43 12 56 80 22 114 23 127 9 136 -7 4 -14 3 -17 -4 -2
-7 -8 -12 -13 -12 -18 0 84 136 115 152 17 9 40 25 51 35 23 21 129 73 150 73
7 0 17 5 20 10 3 6 29 10 57 10 l51 0 -7 -30z m-1056 -185 c5 -14 17 -25 27
-26 10 0 32 -9 48 -20 17 -10 37 -22 45 -26 28 -13 79 -57 74 -64 -2 -4 -17
-1 -32 7 -31 16 -80 18 -102 4 -8 -5 -19 -5 -25 -1 -5 5 -37 11 -70 15 -94 10
-138 20 -162 36 -28 18 -29 32 -4 54 15 14 35 17 98 15 66 -2 79 0 81 14 5 24
11 21 22 -8z m-1883 -172 c-8 -8 -132 -53 -167 -61 -14 -3 -27 -8 -30 -11 -3
-3 -61 -25 -130 -48 -69 -23 -161 -55 -205 -71 -44 -16 -123 -44 -175 -61 -52
-17 -104 -36 -115 -41 -11 -6 -74 -28 -140 -50 -159 -53 -193 -65 -201 -73 -4
-4 -19 -7 -33 -6 -14 0 -19 3 -11 5 8 3 33 12 55 21 76 30 162 60 240 85 33
11 69 23 80 28 11 4 43 15 70 25 28 9 59 21 70 26 11 4 43 16 70 24 28 9 59
20 70 25 11 5 45 16 75 25 30 9 64 20 75 25 11 5 43 16 70 25 28 8 59 20 70
25 11 5 56 21 100 35 44 15 89 30 100 35 11 5 29 11 40 13 11 3 22 5 24 6 2 0
1 -2 -2 -6z m4948 -83 c10 -8 82 -30 120 -37 10 -2 22 -7 25 -11 3 -5 37 -18
75 -29 90 -28 209 -69 249 -87 17 -8 56 -22 86 -31 30 -10 63 -21 72 -26 10
-5 24 -9 32 -9 7 0 27 -7 42 -15 16 -8 36 -15 44 -15 9 0 20 -4 25 -8 6 -5 30
-14 55 -21 25 -7 59 -19 75 -26 17 -7 84 -30 150 -51 66 -21 125 -42 132 -47
7 -5 16 -6 21 -3 6 3 16 -2 23 -11 13 -14 11 -16 -11 -10 -30 7 -143 45 -185
63 -16 6 -50 19 -75 27 -25 9 -110 39 -190 67 -80 29 -154 54 -165 57 -11 3
-35 11 -52 19 -18 8 -47 16 -65 17 -18 1 -41 9 -51 18 -10 9 -30 19 -45 22
-15 3 -35 9 -45 13 -15 6 -18 3 -15 -17 5 -35 -48 -40 -73 -8 -9 13 -15 28
-13 34 8 19 -34 48 -70 50 -19 1 -52 11 -73 22 -21 11 -63 28 -93 38 -61 19
-94 41 -45 29 17 -4 35 -10 40 -14z m-3272 -162 c23 -5 60 -12 82 -14 35 -5
67 -16 127 -45 10 -5 25 -9 33 -9 8 0 15 -4 15 -10 0 -5 8 -10 18 -10 9 0 46
-30 82 -65 36 -36 71 -63 78 -60 6 2 12 -3 12 -11 0 -8 -4 -12 -10 -9 -5 3
-10 -1 -10 -9 0 -9 3 -16 8 -16 8 0 31 -66 42 -125 9 -45 -6 -215 -21 -229 -5
-6 -9 -17 -9 -25 -1 -24 -50 -76 -95 -102 -33 -19 -55 -23 -131 -23 -101 -1
-132 10 -176 59 -28 31 -36 58 -45 141 -10 105 54 171 156 159 65 -7 76 -15
103 -72 20 -43 20 -45 2 -78 -18 -34 -38 -45 -86 -45 -41 0 -58 10 -58 34 1
29 20 51 53 60 23 6 27 10 21 29 -9 30 -33 46 -67 47 -40 0 -87 -27 -87 -50 0
-10 -4 -22 -10 -25 -5 -3 -10 -31 -10 -61 0 -52 2 -57 48 -103 41 -41 55 -49
100 -55 93 -12 149 17 208 110 31 49 35 62 36 127 1 137 -58 205 -256 292 -49
22 -194 21 -203 -1 -4 -11 2 -23 18 -35 13 -10 20 -19 14 -18 -5 0 -19 6 -29
14 -50 38 -142 -45 -210 -190 -23 -49 -29 -74 -29 -140 -1 -47 4 -90 11 -105
12 -23 11 -22 -12 4 -28 34 -36 66 -36 152 0 57 -2 64 -20 64 -11 0 -29 -6
-40 -12 -15 -10 -22 -10 -32 0 -6 6 -20 12 -29 12 -17 0 -32 23 -22 34 4 3 13
6 21 6 8 0 59 44 114 97 54 53 112 106 129 116 21 14 27 23 20 30 -18 18 -12
27 11 18 20 -7 61 1 100 20 10 5 26 9 37 9 26 0 51 10 51 21 0 5 -42 9 -93 9
-85 0 -96 -2 -115 -23 -16 -17 -30 -22 -50 -19 -18 2 -33 -2 -41 -12 -8 -9
-18 -16 -23 -16 -5 0 -14 -4 -21 -10 -91 -73 -144 -121 -206 -184 -41 -42 -88
-82 -103 -88 -15 -7 -28 -16 -28 -20 0 -5 -41 -8 -90 -8 -83 0 -93 2 -115 25
-14 13 -25 26 -25 28 0 3 15 12 33 21 45 23 67 38 96 64 14 12 29 22 33 22 5
0 8 7 8 15 0 10 -10 15 -30 15 -16 0 -30 -4 -30 -10 0 -5 -15 -10 -34 -10 -19
0 -37 -4 -40 -9 -8 -13 -130 -24 -176 -16 -43 7 -100 54 -100 82 0 9 -7 24
-16 34 -9 10 -14 30 -12 51 l3 33 21 -20 c31 -30 79 -55 107 -55 14 0 29 -4
32 -10 10 -16 141 -12 182 5 19 8 48 15 64 15 15 0 31 5 34 10 3 6 17 10 30
10 13 0 38 8 57 17 60 30 68 33 83 33 15 0 23 3 83 33 19 9 45 17 58 17 46 0
25 33 -45 67 -19 9 -29 19 -23 21 6 2 30 -8 54 -22 74 -44 90 -49 118 -35 14
7 50 16 80 20 112 15 142 22 147 36 4 10 9 11 19 2 8 -7 33 -16 57 -21z m1472
-16 c28 -1 65 -10 83 -18 19 -9 58 -16 89 -16 45 -1 56 -4 60 -19 3 -12 18
-21 39 -25 19 -3 37 -10 40 -15 3 -5 16 -9 29 -9 13 0 27 -4 30 -10 3 -5 14
-10 23 -10 9 0 30 -7 46 -15 15 -8 37 -15 47 -15 10 0 21 -4 24 -10 3 -5 19
-10 34 -10 16 0 45 -7 64 -15 84 -35 267 0 319 60 17 19 17 19 18 -18 0 -20
-4 -45 -9 -55 -5 -9 -15 -30 -22 -45 -7 -15 -28 -37 -46 -49 -30 -18 -46 -20
-124 -16 -50 2 -94 9 -101 16 -7 7 -25 12 -40 12 -15 0 -28 5 -28 10 0 6 -13
10 -30 10 -39 0 -38 -15 2 -48 33 -28 49 -38 106 -67 17 -10 32 -20 32 -24 0
-4 -13 -17 -30 -29 -25 -19 -42 -22 -115 -22 -50 0 -85 4 -85 10 0 6 -8 10
-18 10 -10 0 -70 50 -132 111 -63 61 -130 123 -150 138 -19 14 -37 29 -40 32
-10 13 -50 20 -50 10 0 -6 -3 -10 -7 -9 -5 2 -18 -4 -31 -13 l-23 -16 85 -84
c109 -108 133 -129 150 -129 8 0 17 -4 20 -8 14 -23 -55 -57 -84 -42 -30 16
-58 12 -65 -10 -3 -11 -3 -25 0 -31 15 -23 -6 -135 -30 -165 l-24 -29 11 40
c13 45 14 116 4 160 -13 52 -56 145 -68 145 -5 0 -8 6 -8 13 0 24 -70 87 -97
87 -18 0 -24 4 -20 14 11 29 -53 56 -133 56 -73 0 -92 -6 -197 -58 -55 -27
-133 -96 -133 -117 0 -7 -7 -18 -15 -25 -22 -18 -21 -165 2 -211 26 -51 104
-125 141 -132 39 -8 121 2 140 17 18 14 64 60 80 79 17 22 15 93 -4 136 -25
56 -97 80 -136 44 -24 -21 -24 -53 1 -53 22 0 51 -40 51 -69 0 -25 -36 -36
-88 -27 -59 9 -85 62 -59 119 24 49 49 67 104 74 101 11 163 -50 163 -161 0
-30 -4 -58 -10 -61 -5 -3 -10 -15 -10 -26 0 -29 -40 -78 -80 -97 -55 -27 -203
-22 -255 7 -43 25 -95 78 -95 99 0 7 -7 24 -16 37 -24 36 -24 238 -1 285 10
18 17 39 17 47 0 7 5 13 10 13 6 0 10 7 10 16 0 23 119 143 160 161 19 8 44
19 55 24 11 5 32 13 48 19 15 5 27 13 27 18 0 4 19 8 43 9 90 3 207 19 218 30
10 10 15 8 23 -10 9 -18 21 -23 61 -25z m3949 -38 c9 -3 16 -13 16 -20 0 -8 7
-17 15 -20 31 -12 9 -84 -25 -84 -11 0 -29 -5 -39 -12 -22 -13 -51 3 -51 28 0
8 -16 30 -35 48 -19 19 -35 36 -35 38 0 2 17 2 39 0 26 -3 43 1 52 12 15 16
37 20 63 10z m-2850 -486 c1 -2 10 -14 21 -27 16 -19 17 -23 4 -19 -12 5 -15
1 -11 -17 3 -17 -2 -25 -17 -30 -12 -3 -21 -11 -21 -16 0 -5 -15 -9 -34 -9
-19 0 -36 -5 -38 -11 -6 -17 -212 -20 -253 -3 -19 8 -57 14 -84 14 -27 0 -53
5 -56 10 -3 6 -21 10 -40 10 -19 0 -37 5 -40 10 -3 6 -15 10 -26 10 -10 0 -36
9 -56 20 -34 18 -35 20 -12 20 14 0 30 -5 37 -12 17 -17 316 -18 333 0 7 6 30
12 50 12 21 0 41 5 44 10 3 6 21 10 38 10 18 0 40 7 50 15 16 11 105 14 111 3z
m-3764 -8 c0 -5 18 -10 39 -10 22 0 43 -4 46 -10 3 -5 21 -10 39 -10 18 0 48
-7 65 -16 27 -14 57 -16 172 -12 88 3 144 9 151 16 7 7 23 12 37 12 20 -1 15
-5 -24 -21 -27 -12 -58 -25 -67 -30 -10 -5 -31 -9 -47 -9 -17 0 -33 -4 -36
-10 -3 -5 -33 -10 -66 -10 -33 0 -70 -5 -82 -12 -26 -14 -240 -11 -245 3 -2 5
-19 9 -38 9 -19 0 -34 4 -34 9 0 5 -9 12 -19 16 -23 7 -32 51 -16 78 8 13 23
17 67 17 32 0 58 -4 58 -10z m1861 -140 c28 -53 100 -133 145 -160 31 -19 67
-20 1859 -20 1006 0 1831 -2 1833 -5 5 -4 -2279 -8 -3245 -5 -233 1 -333 -2
-338 -10 -11 -17 0 -22 49 -24 59 -1 65 -10 19 -30 -21 -9 -46 -21 -55 -26
-10 -6 -38 -10 -63 -10 -42 0 -50 5 -96 51 -27 27 -54 47 -59 44 -15 -9 -12
-41 5 -55 8 -7 15 -19 15 -26 0 -11 -22 -14 -105 -14 -58 0 -105 2 -105 5 0 2
9 19 20 37 44 73 15 77 -55 8 -42 -41 -56 -49 -88 -50 -21 0 -51 7 -67 15 -17
9 -30 13 -30 10 0 -3 -14 2 -30 10 -35 18 -30 40 6 31 31 -8 76 3 71 18 -3 8
-433 12 -1628 16 l-1624 5 1655 3 1655 2 45 24 c49 25 131 119 157 178 19 42
20 42 54 -22z m1434 -455 c0 -16 -8 -21 -40 -25 l-40 -5 3 -197 3 -198 -25 0
c-14 0 -28 5 -32 12 -4 6 -6 91 -5 189 l2 178 -48 3 c-45 3 -48 5 -51 32 -4
28 -3 29 35 24 21 -3 49 -2 63 2 14 5 50 8 80 7 48 -2 55 -5 55 -22z m-3393
-12 c27 -24 22 -64 -17 -138 l-36 -66 31 -29 c40 -37 40 -80 1 -142 -35 -55
-45 -62 -77 -54 -29 8 -74 75 -74 111 0 22 4 26 22 23 16 -2 24 -12 28 -32 7
-39 23 -43 49 -10 38 48 26 84 -32 98 -39 9 -44 32 -14 64 30 31 67 107 66
137 0 16 -5 13 -32 -18 -52 -61 -99 -39 -62 29 29 53 103 67 147 27z m1007 18
c25 -16 4 -41 -34 -41 l-36 0 3 -72 3 -73 35 -5 c44 -6 48 -34 5 -38 -38 -4
-55 -26 -55 -71 0 -66 9 -81 46 -81 47 0 44 -24 -5 -38 -50 -15 -78 -15 -88 1
-12 17 -3 399 9 415 12 14 96 16 117 3z m382 -19 c18 -23 20 -37 17 -98 -2
-50 -9 -78 -23 -98 -11 -16 -24 -35 -30 -43 -7 -10 3 -39 38 -105 33 -64 44
-95 37 -102 -18 -18 -43 7 -80 82 -19 40 -38 72 -42 72 -12 0 -10 -68 3 -91
11 -22 -3 -49 -26 -49 -29 0 -37 67 -30 258 4 103 9 189 10 192 2 3 26 6 54 7
44 2 53 -1 72 -25z m318 19 c25 -16 4 -41 -34 -41 l-36 0 3 -72 3 -73 35 -5
c44 -6 48 -34 5 -38 -38 -4 -55 -26 -55 -71 0 -66 9 -81 46 -81 47 0 44 -24
-5 -38 -50 -15 -78 -15 -88 1 -12 17 -3 399 9 415 12 14 96 16 117 3z m109 -3
c5 -7 15 -40 22 -73 7 -33 20 -82 30 -110 10 -27 21 -63 25 -79 14 -63 25 1
24 134 -2 131 -2 135 19 138 12 2 22 0 23 -5 0 -4 1 -105 1 -223 l2 -215 -30
0 c-28 0 -30 3 -77 140 l-48 140 6 -126 c6 -125 6 -127 -17 -143 -43 -31 -48
-6 -42 217 3 111 7 204 10 209 8 12 40 10 52 -4z m704 2 c28 0 41 -5 52 -22
15 -24 36 -169 36 -251 0 -65 17 -51 25 21 15 129 58 262 85 262 24 0 28 -37
9 -81 -25 -54 -91 -318 -83 -330 11 -19 -8 -49 -30 -49 -36 0 -42 16 -55 130
-12 107 -47 277 -59 283 -4 2 -26 2 -50 -1 l-43 -4 3 -72 3 -71 35 -5 c44 -6
48 -34 5 -38 -38 -4 -55 -26 -55 -71 0 -66 9 -81 46 -81 47 0 44 -24 -5 -38
-50 -15 -78 -15 -88 1 -12 18 -3 399 10 415 8 10 26 12 66 8 31 -3 73 -6 93
-6z m367 1 c25 -16 4 -41 -34 -41 l-36 0 3 -72 3 -73 35 -5 c44 -6 48 -34 5
-38 -38 -4 -55 -26 -55 -71 0 -66 9 -81 46 -81 47 0 44 -24 -5 -38 -50 -15
-78 -15 -88 1 -12 17 -3 399 9 415 12 14 96 16 117 3z m109 -3 c5 -7 15 -40
22 -73 7 -33 20 -82 30 -110 10 -27 21 -63 25 -79 14 -63 25 1 24 134 -2 131
-2 135 19 138 12 2 22 0 23 -5 0 -4 1 -105 1 -223 l2 -215 -30 0 c-28 0 -30 3
-77 140 l-48 140 6 -126 c6 -125 6 -127 -17 -143 -43 -31 -48 -6 -42 217 3
111 7 204 10 209 8 12 40 10 52 -4z m-3431 -35 c21 -52 14 -279 -11 -340 -22
-53 -38 -58 -86 -30 -55 31 -65 62 -64 192 1 169 23 215 100 215 42 0 46 -2
61 -37z m1287 31 c22 -9 20 -28 -8 -73 -42 -66 -66 -163 -66 -268 l0 -94 -27
3 -27 3 -3 109 c-2 97 -6 116 -34 177 -18 38 -38 74 -45 80 -18 15 -18 49 -1
49 24 0 46 -24 66 -72 11 -27 24 -48 29 -48 5 0 23 32 41 70 30 68 41 77 75
64z m332 -132 c3 -111 11 -191 27 -276 1 -6 -9 -11 -23 -11 -19 0 -26 6 -28
25 -6 47 -9 51 -36 39 -17 -8 -26 -21 -28 -43 -2 -26 -7 -31 -28 -31 -23 0
-25 4 -28 49 -2 28 8 102 23 170 43 199 52 219 93 214 24 -3 24 -4 28 -136z
m970 116 c12 -6 27 -21 33 -35 29 -63 -5 -236 -63 -328 -31 -47 -40 -55 -66
-55 -24 0 -33 6 -40 26 -6 14 -10 113 -10 220 l0 195 63 -6 c34 -4 72 -11 83
-17z m-2383 -8 c48 -38 57 -112 21 -181 -20 -40 -73 -89 -96 -89 -18 0 -20 -6
-18 -57 1 -32 2 -64 1 -70 -1 -16 -37 -17 -47 -2 -10 17 -12 381 -2 402 13 26
107 24 141 -3z m679 9 c47 -25 58 -107 34 -265 -16 -104 -28 -128 -74 -150
-51 -24 -95 -5 -118 49 -23 56 -24 245 -1 299 26 62 105 96 159 67z m3246 -1
c21 -21 13 -78 -22 -157 -40 -90 -72 -188 -63 -197 3 -3 21 -1 40 5 40 13 69
5 65 -18 -5 -23 -129 -48 -163 -33 -14 7 -25 20 -25 31 0 21 80 242 105 291
23 44 19 50 -29 50 -45 0 -63 11 -51 30 9 14 128 13 143 -2z m234 1 c47 -25
58 -107 34 -265 -16 -104 -28 -128 -74 -150 -51 -24 -95 -5 -118 49 -23 56
-24 245 -1 299 26 62 105 96 159 67z m246 -1 c21 -21 13 -78 -22 -157 -40 -90
-72 -188 -63 -197 3 -3 21 -1 40 5 40 13 69 5 65 -18 -5 -23 -129 -48 -163
-33 -14 7 -25 20 -25 31 0 21 80 242 105 291 23 44 19 50 -29 50 -45 0 -63 11
-51 30 9 14 128 13 143 -2z m234 1 c47 -25 58 -107 34 -265 -16 -104 -28 -128
-74 -150 -51 -24 -95 -5 -118 49 -23 56 -24 245 -1 299 26 62 105 96 159 67z
m-4185 -15 c3 -8 -4 -25 -15 -37 -18 -19 -52 -86 -52 -101 0 -3 6 -3 13 0 8 3
25 -4 38 -15 21 -17 24 -27 23 -83 -3 -117 -50 -172 -129 -150 -60 17 -70 150
-19 262 51 112 72 140 105 140 18 0 32 -6 36 -16z m5012 -428 c10 -12 5 -22
-26 -53 -38 -39 -113 -135 -113 -147 0 -3 36 -6 80 -6 44 0 80 -4 80 -9 0 -15
-29 -21 -105 -21 -47 0 -78 -5 -85 -12 -35 -40 -153 -286 -187 -389 -33 -99
-23 -119 34 -69 59 51 284 275 322 320 24 29 41 40 61 40 41 0 54 -22 31 -51
-31 -41 -91 -167 -91 -194 0 -16 6 -25 16 -25 24 0 123 58 170 99 69 62 99 89
112 105 17 21 55 20 81 -2 l22 -17 -39 -55 c-74 -105 -72 -105 63 -24 112 67
145 80 145 55 0 -5 -57 -43 -127 -85 -71 -42 -136 -83 -145 -90 -9 -7 -39 -65
-67 -130 -58 -135 -130 -249 -175 -278 -24 -14 -44 -18 -84 -15 -97 7 -135 62
-92 132 27 43 149 151 241 212 64 42 70 50 99 118 16 41 30 76 30 79 0 3 -38
-24 -85 -59 -77 -59 -156 -95 -205 -95 -32 0 -60 30 -60 65 0 19 5 37 10 40 6
3 10 11 10 18 0 6 -48 -36 -107 -94 -139 -136 -168 -159 -203 -159 -16 0 -41
11 -57 24 -23 20 -27 31 -26 68 2 24 9 63 18 87 8 24 15 48 15 55 0 6 -33 -22
-72 -61 -71 -69 -153 -123 -188 -123 -10 0 -29 9 -44 21 -45 35 -30 100 52
227 14 22 14 22 -31 22 -45 0 -47 -1 -86 -58 -46 -68 -132 -149 -167 -158 -39
-10 -73 4 -94 39 -24 38 -25 60 -5 118 l15 44 -48 -52 c-102 -112 -166 -140
-212 -91 -57 62 18 233 126 286 63 31 96 25 129 -24 l20 -30 30 18 c39 23 60
23 85 -2 l20 -20 -29 -53 c-30 -53 -60 -162 -48 -174 15 -14 59 20 131 103 58
66 74 90 65 100 -22 27 33 84 83 84 37 0 44 -17 19 -44 -33 -35 -26 -43 39
-48 78 -6 91 -18 66 -61 -54 -93 -98 -179 -92 -184 15 -15 72 27 175 131 99
99 118 124 161 210 l48 98 -83 -7 c-88 -7 -186 2 -164 15 7 5 70 12 141 15
l128 8 32 56 c32 57 47 77 105 138 26 28 38 33 76 33 26 0 49 -6 56 -14z
m-1519 -16 c21 -21 18 -42 -10 -75 -18 -21 -83 -132 -118 -201 -17 -33 2 -17
111 91 182 181 235 214 302 183 42 -19 57 -58 45 -115 -16 -69 -51 -123 -121
-187 -93 -84 -286 -176 -369 -176 -38 0 -41 -2 -68 -57 -16 -32 -37 -80 -47
-106 -13 -34 -26 -52 -44 -58 -31 -12 -71 3 -71 28 0 32 43 168 70 223 15 30
40 85 55 122 15 37 36 75 46 84 11 10 19 21 19 26 0 15 95 161 130 201 39 43
43 44 70 17z m-5335 -32 c37 -44 31 -96 -23 -212 -23 -49 -42 -92 -42 -95 0
-3 48 41 108 99 170 165 227 196 276 147 37 -37 35 -83 -8 -138 -37 -49 -105
-157 -131 -210 -15 -30 -11 -28 26 16 170 201 312 285 376 225 46 -42 41 -101
-12 -180 -50 -74 -161 -288 -176 -337 -17 -59 -4 -73 72 -73 32 0 70 5 85 10
60 23 33 -22 -31 -51 -22 -10 -56 -19 -76 -19 -71 0 -139 73 -139 148 0 80 62
222 157 360 47 69 63 112 42 112 -45 0 -218 -160 -335 -311 -43 -54 -81 -99
-86 -99 -5 0 -20 12 -35 26 -21 21 -24 32 -20 61 10 59 60 152 142 263 79 108
110 158 102 167 -15 14 -106 -53 -202 -151 -140 -140 -237 -261 -281 -348 -30
-60 -38 -68 -63 -68 -40 0 -55 22 -48 71 6 48 196 401 210 392 6 -3 7 -2 4 4
-3 5 7 37 24 71 45 94 38 124 -23 99 -41 -17 -109 -90 -127 -137 -21 -53 -30
-61 -52 -49 -14 7 -19 21 -19 48 0 87 126 191 232 191 40 0 50 -4 73 -32z
m4330 -22 c27 -20 23 -78 -9 -126 -14 -21 -80 -94 -147 -162 -66 -68 -127
-136 -134 -153 -7 -16 -19 -65 -26 -108 -16 -93 -7 -111 38 -79 35 25 256 253
301 310 55 70 131 97 199 71 54 -20 57 -54 9 -107 -34 -38 -127 -92 -157 -92
-26 0 -52 -131 -29 -145 24 -15 106 39 200 130 95 92 113 105 124 87 7 -12
-211 -225 -251 -246 -41 -20 -76 -20 -120 0 -52 25 -66 53 -58 116 l7 53 -114
-111 c-62 -62 -123 -117 -135 -123 -64 -32 -123 15 -123 100 l0 49 -60 -40
c-34 -21 -74 -41 -90 -45 -41 -9 -89 18 -97 55 l-5 30 -46 -40 c-72 -64 -127
-66 -162 -7 -24 38 -25 60 -5 118 l15 44 -48 -52 c-71 -79 -119 -113 -158
-113 -40 0 -74 32 -74 69 0 23 -6 19 -67 -41 -66 -65 -149 -118 -183 -118 -10
0 -29 9 -44 21 -45 35 -30 100 51 225 13 21 12 22 -34 26 l-48 5 -105 -102
c-141 -138 -179 -155 -257 -119 -51 25 -67 54 -58 109 l6 46 -46 -35 c-55 -42
-108 -55 -144 -35 -29 17 -38 56 -21 90 7 12 -16 -3 -54 -35 -77 -65 -114 -86
-154 -86 -44 0 -56 21 -49 85 l6 55 -27 -6 c-62 -15 -72 -23 -72 -53 0 -52
-38 -221 -61 -267 -35 -73 -66 -104 -103 -104 -49 0 -79 37 -78 96 0 26 5 56
10 68 5 12 25 57 44 102 l35 81 -49 -34 c-84 -56 -161 -35 -174 46 l-6 38 -67
-29 -67 -30 3 -52 c6 -68 -19 -114 -77 -143 -110 -57 -260 -1 -222 82 12 26
102 89 153 107 33 11 36 29 15 80 -8 18 -18 61 -21 94 -7 59 -7 61 25 88 36
30 76 32 94 4 8 -13 6 -22 -8 -37 -17 -19 -17 -23 -1 -95 9 -42 20 -76 24 -76
11 0 131 50 171 71 19 10 55 36 79 59 111 101 216 137 271 92 20 -17 23 -23
12 -34 -7 -7 -28 -11 -47 -9 -45 3 -85 -21 -158 -98 -56 -59 -77 -94 -77 -132
0 -48 87 5 202 124 46 47 62 58 84 55 39 -4 53 -31 30 -57 l-19 -21 50 18 c40
13 61 30 102 80 42 50 57 62 81 62 63 0 76 -21 36 -61 -13 -13 -40 -54 -60
-91 -35 -65 -44 -98 -28 -98 20 0 83 50 154 121 80 80 109 94 147 70 13 -8 13
-14 1 -38 -7 -15 -14 -30 -14 -33 -1 -3 -9 -22 -19 -43 -10 -21 -17 -45 -15
-53 4 -22 122 65 143 106 55 106 158 161 242 129 54 -20 57 -54 9 -107 -34
-38 -127 -92 -157 -92 -26 0 -52 -131 -28 -145 5 -4 33 5 62 19 62 31 239 200
230 222 -8 22 51 74 86 74 40 0 48 -16 22 -44 -33 -35 -26 -43 39 -48 78 -6
91 -18 66 -61 -53 -90 -98 -179 -93 -183 14 -15 60 17 146 100 51 50 111 117
133 149 30 44 52 64 93 84 64 32 97 26 130 -23 l20 -30 30 18 c39 23 60 23 85
-2 l21 -21 -27 -44 c-25 -43 -54 -132 -54 -167 0 -49 77 10 165 128 91 121
145 143 223 91 l40 -26 23 56 c28 68 111 208 147 247 45 48 83 66 138 66 27 0
59 -6 69 -14z m-3452 -276 c14 -11 29 -29 32 -40 6 -19 6 -19 38 0 41 25 62
25 87 0 l20 -20 -29 -53 c-30 -53 -60 -162 -48 -174 15 -14 58 19 127 99 80
91 100 107 100 84 0 -25 -87 -141 -142 -190 -76 -70 -131 -74 -168 -13 -24 38
-25 60 -5 118 l15 44 -48 -52 c-102 -112 -166 -140 -212 -91 -54 59 17 230
118 283 58 30 82 31 115 5z m4300 -581 c12 -7 25 -17 29 -23 11 -17 9 -94 -2
-101 -6 -4 -7 -11 -4 -17 15 -24 22 -82 13 -107 -13 -33 -26 -41 -71 -41 -27
0 -41 6 -52 22 -20 29 -21 102 -1 118 13 11 13 14 0 27 -31 30 -13 106 28 123
30 12 35 12 60 -1z m-1670 -31 c9 -11 17 -33 17 -49 0 -24 -4 -29 -25 -29 -21
0 -25 5 -25 31 0 24 -4 30 -17 27 -16 -3 -18 -16 -18 -103 0 -87 2 -100 18
-103 14 -3 17 4 17 32 0 32 3 36 25 36 22 0 25 -4 25 -33 0 -51 -24 -77 -70
-77 -59 0 -70 23 -70 143 0 54 5 107 11 118 22 42 79 45 112 7z m390 4 c14
-13 17 -33 17 -125 0 -129 -9 -147 -71 -147 -40 0 -69 26 -69 62 0 26 40 24
47 -2 3 -11 14 -20 24 -20 15 0 19 7 19 35 0 33 -1 34 -29 29 -22 -5 -32 -1
-45 17 -18 27 -22 110 -5 140 21 39 74 45 112 11z m290 17 c30 -16 37 -28 37
-69 0 -36 -13 -61 -62 -118 -41 -48 -37 -62 17 -62 38 0 45 -3 45 -20 0 -18
-7 -20 -71 -20 l-71 0 6 31 c3 17 6 37 6 43 0 6 18 33 40 60 30 36 40 57 40
83 0 27 -4 34 -17 31 -11 -2 -19 -14 -21 -31 -3 -21 -9 -27 -28 -27 -17 0 -24
6 -24 19 0 35 19 71 42 81 31 12 36 12 61 -1z m170 0 c34 -19 37 -27 37 -146
0 -128 -7 -143 -70 -143 -59 0 -70 23 -70 143 0 105 8 133 43 147 30 12 35 12
60 -1z m170 0 c30 -16 37 -28 37 -69 0 -36 -13 -61 -62 -118 -41 -48 -37 -62
17 -62 38 0 45 -3 45 -20 0 -18 -7 -20 -71 -20 l-71 0 6 31 c3 17 6 37 6 43 0
6 18 33 40 60 30 36 40 57 40 83 0 27 -4 34 -17 31 -11 -2 -19 -14 -21 -31 -3
-21 -9 -27 -28 -27 -17 0 -24 6 -24 19 0 35 19 71 42 81 31 12 36 12 61 -1z
m160 0 c34 -19 37 -27 37 -146 0 -128 -7 -143 -70 -143 -59 0 -70 23 -70 143
0 105 8 133 43 147 30 12 35 12 60 -1z m679 -6 c13 -12 18 -30 18 -68 0 -57
-16 -81 -60 -87 -23 -3 -25 -8 -28 -60 -3 -50 -6 -58 -22 -58 -17 0 -20 7 -20
48 0 26 -3 91 -7 145 l-6 97 53 0 c36 0 60 -6 72 -17z m111 4 c3 -8 8 -44 12
-80 4 -37 11 -69 15 -72 4 -3 11 26 14 63 10 98 12 102 52 102 l34 0 0 -145 0
-145 -25 0 c-25 0 -25 1 -26 88 -1 86 -1 86 -10 32 -19 -118 -19 -120 -39
-120 -20 0 -21 4 -39 115 -8 48 -9 46 -10 -32 -1 -76 -3 -83 -21 -83 -17 0
-20 7 -20 48 0 26 -3 91 -7 145 l-6 97 35 0 c21 0 38 -6 41 -13z m-3875 -19
c6 -6 12 -23 12 -39 0 -22 -5 -29 -19 -29 -10 0 -21 9 -24 20 -8 29 -37 26
-37 -5 0 -16 15 -40 39 -65 22 -23 43 -54 46 -70 14 -62 -37 -109 -95 -88 -30
11 -40 25 -40 61 0 20 5 27 20 27 13 0 20 -7 20 -20 0 -24 26 -38 42 -22 15
15 1 47 -43 93 -31 32 -39 48 -39 77 0 45 8 58 40 71 26 10 56 6 78 -11z
m1585 7 c21 -20 33 -189 17 -230 -15 -39 -26 -45 -82 -45 l-48 0 0 48 c0 26
-3 91 -7 145 l-6 97 56 0 c36 0 61 -5 70 -15z m177 -5 c0 -17 -7 -20 -41 -20
l-40 0 3 -37 c3 -35 6 -38 36 -41 24 -2 32 -8 32 -23 0 -15 -7 -19 -36 -19
l-35 0 3 -42 c3 -42 4 -43 41 -46 29 -3 37 -7 37 -23 0 -17 -7 -19 -60 -19
l-60 0 0 48 c0 26 -3 91 -7 145 l-6 97 66 0 c60 0 67 -2 67 -20z m370 -125 l0
-145 -25 0 -25 0 0 110 0 110 -25 0 c-18 0 -25 5 -25 20 0 15 7 20 25 20 14 0
28 7 31 15 4 8 15 15 25 15 18 0 19 -9 19 -145z m-1973 5 c28 -161 28 -160 -1
-160 -19 0 -25 6 -28 28 -2 21 -8 27 -28 27 -20 0 -26 -6 -28 -27 -3 -22 -9
-28 -26 -28 l-23 0 23 143 c13 78 24 143 24 145 0 2 15 2 33 0 l32 -3 22 -125z
m163 110 c0 -15 -7 -20 -25 -20 l-25 0 0 -125 0 -125 -25 0 -25 0 0 125 0 125
-25 0 c-18 0 -25 5 -25 20 0 18 7 20 75 20 68 0 75 -2 75 -20z m60 -100 c0
-101 3 -122 16 -127 29 -11 35 19 30 135 l-4 112 24 0 24 0 0 -129 c0 -151 -6
-164 -73 -159 -58 4 -67 26 -67 171 l0 117 25 0 25 0 0 -120z m244 104 c19
-18 22 -94 4 -112 -8 -8 -8 -15 -1 -24 6 -7 13 -41 15 -75 4 -60 3 -63 -19
-63 -20 0 -23 5 -23 38 0 56 -10 82 -31 82 -17 0 -19 -8 -19 -60 0 -53 -2 -60
-20 -60 -17 0 -20 7 -20 48 0 26 -3 91 -7 145 l-6 97 56 0 c37 0 61 -5 71 -16z
m159 1 c21 -20 33 -189 17 -230 -15 -39 -26 -45 -82 -45 l-48 0 0 48 c0 26 -3
91 -7 145 l-6 97 56 0 c36 0 61 -5 70 -15z m174 -115 c28 -161 28 -160 -1
-160 -19 0 -25 6 -28 28 -2 21 -8 27 -28 27 -20 0 -26 -6 -28 -27 -3 -22 -9
-28 -26 -28 l-23 0 23 143 c13 78 24 143 24 145 0 2 15 2 33 0 l32 -3 22 -125z
m78 88 c15 -53 21 -54 34 -3 9 38 15 45 35 45 l24 0 -24 -77 c-15 -50 -24
-103 -24 -145 0 -66 -1 -68 -25 -68 -24 0 -25 3 -25 58 0 38 -10 89 -30 146
l-29 87 27 -3 c21 -2 29 -11 37 -40z m110 -419 c5 -5 12 -36 15 -67 7 -77 25
-64 21 16 l-3 62 55 0 c72 0 87 -15 87 -86 0 -50 2 -54 24 -54 13 0 38 8 55
18 25 13 31 24 31 50 0 25 -4 32 -20 32 -13 0 -20 -7 -20 -20 0 -15 -7 -20
-25 -20 -33 0 -33 32 0 65 30 30 54 31 89 4 20 -16 26 -29 26 -59 0 -21 -4
-42 -10 -45 -18 -11 -10 -25 15 -25 23 0 25 3 25 50 0 41 5 56 25 75 13 14 36
25 50 25 30 0 65 -32 65 -60 0 -25 -28 -27 -45 -3 -20 27 -45 9 -45 -34 0 -29
3 -34 12 -25 19 19 56 14 70 -8 23 -36 38 -24 38 30 0 41 5 56 26 77 20 20 31
24 57 19 44 -9 51 -19 57 -84 4 -50 8 -57 28 -60 27 -4 28 8 2 82 l-19 57 26
-3 c21 -2 29 -12 42 -48 l15 -45 14 48 c11 39 17 47 38 47 13 0 24 -2 24 -3 0
-2 -9 -30 -20 -62 -26 -75 -26 -77 13 -73 l32 3 -3 68 -4 67 66 0 c59 0 66 -2
66 -20 0 -17 -7 -20 -41 -20 l-40 0 3 -37 c3 -35 6 -38 36 -41 17 -2 32 -8 32
-13 0 -6 8 -9 18 -7 15 3 17 13 14 71 l-4 67 66 0 c59 0 66 -2 66 -20 0 -17
-7 -20 -41 -20 l-40 0 3 -37 c3 -35 6 -38 36 -41 17 -2 32 -7 32 -13 0 -5 19
-9 42 -9 52 0 78 22 78 67 0 26 -4 33 -20 33 -16 0 -20 -7 -20 -31 0 -26 -3
-30 -22 -27 -19 2 -23 9 -21 38 3 62 71 92 113 50 22 -22 27 -78 10 -111 -9
-16 -7 -19 15 -19 23 0 25 3 25 50 0 41 5 56 26 77 20 20 31 24 57 19 44 -9
51 -19 57 -84 5 -56 5 -57 38 -60 44 -4 72 21 72 65 0 26 -4 33 -20 33 -16 0
-20 -7 -20 -31 0 -26 -3 -30 -22 -27 -19 2 -23 9 -21 38 3 62 71 92 113 50 22
-22 27 -78 10 -111 -9 -16 -7 -19 15 -19 23 0 25 3 25 50 0 41 5 56 26 77 20
20 31 24 57 19 44 -9 51 -19 57 -84 l5 -57 1428 -3 c785 -1 1427 -5 1427 -10
0 -4 -640 -6 -1422 -4 -1133 2 -1423 0 -1430 -10 -4 -7 -8 -32 -8 -55 0 -52
-20 -73 -70 -73 -50 0 -70 27 -70 92 0 46 -1 48 -28 48 -31 0 -78 -42 -84 -75
-3 -17 3 -20 40 -23 34 -3 42 -7 42 -23 0 -17 -7 -19 -71 -19 l-71 0 7 43 c4
23 14 51 21 62 20 28 17 35 -10 35 -28 0 -36 -16 -36 -70 0 -49 -21 -70 -70
-70 -49 0 -70 27 -70 88 l0 43 -37 -3 c-30 -2 -42 -10 -60 -37 -12 -18 -20
-37 -17 -42 3 -5 23 -9 45 -9 32 0 39 -3 39 -20 0 -18 -7 -20 -71 -20 l-71 0
7 42 c4 24 14 52 22 64 13 21 12 22 -19 25 -18 2 -49 2 -68 -1 -33 -5 -35 -7
-35 -45 0 -39 1 -40 38 -43 29 -3 37 -7 37 -23 0 -17 -7 -19 -60 -19 l-60 0 0
58 c0 75 -6 82 -58 75 -33 -4 -44 -11 -48 -29 -11 -43 -1 -59 39 -62 29 -3 37
-7 37 -23 0 -17 -7 -19 -60 -19 l-60 0 0 49 c0 70 -6 81 -46 81 l-34 0 0 -65
c0 -63 -1 -65 -25 -65 -23 0 -25 3 -25 49 0 64 -7 81 -35 81 -26 0 -35 -17
-35 -65 0 -36 -21 -64 -48 -66 -64 -5 -92 22 -92 87 0 24 -4 44 -10 44 -11 0
-11 2 -15 -59 -4 -54 -22 -73 -70 -73 -49 0 -67 20 -73 81 -3 34 -9 51 -18 51
-10 0 -14 -14 -14 -49 0 -61 -17 -81 -70 -81 -43 0 -70 26 -70 67 0 33 47 33
52 1 2 -13 11 -24 21 -26 16 -3 18 2 15 40 -3 41 -4 43 -38 46 -19 2 -63 1
-97 -3 l-63 -7 0 -59 c0 -52 -2 -59 -20 -59 -16 0 -19 8 -22 63 -4 74 -21 79
-28 7 -6 -58 -19 -70 -72 -70 -46 0 -68 28 -68 87 0 39 -2 43 -25 43 -22 0
-24 -3 -18 -30 3 -17 1 -30 -4 -30 -6 0 -13 -18 -17 -40 -5 -30 -11 -40 -25
-40 -16 0 -18 6 -14 40 5 33 3 40 -11 40 -12 0 -16 -10 -16 -40 0 -32 -4 -40
-19 -40 -15 0 -19 10 -24 57 -4 39 -2 60 6 65 6 4 8 10 5 14 -4 3 -521 6
-1150 6 -629 0 -1179 3 -1223 7 -44 5 472 9 1146 9 1080 2 1228 4 1233 17 3 8
1 15 -4 15 -6 0 -10 9 -10 20 0 11 4 20 9 20 5 0 11 12 13 27 2 17 10 29 21
31 13 3 17 -3 17 -27 0 -21 5 -31 15 -31 10 0 15 10 15 30 0 23 5 30 19 30 14
0 20 -10 25 -47 4 -29 2 -49 -4 -51 -21 -7 -9 -32 15 -32 23 0 25 3 25 50 0
41 5 56 26 77 20 20 31 24 57 19 17 -4 36 -11 42 -17z m-1523 -350 c133 -27
207 -43 253 -55 111 -30 343 -112 422 -149 28 -14 56 -25 62 -25 6 0 34 -11
63 -24 29 -13 74 -32 100 -42 27 -11 48 -22 48 -26 0 -5 7 -8 15 -8 8 0 23 -4
33 -9 100 -53 285 -131 311 -131 9 0 29 -7 45 -15 15 -8 37 -15 47 -15 10 0
21 -5 25 -11 6 -10 35 -8 80 6 16 5 23 2 26 -12 7 -27 158 -61 201 -45 24 9
32 9 41 -2 19 -23 60 -27 182 -16 104 9 124 14 184 46 73 38 107 69 137 124
17 30 19 51 17 140 l-4 105 -57 3 c-62 3 -83 18 -83 58 0 13 8 30 17 39 22 23
90 12 123 -20 l25 -24 25 20 c30 23 86 49 108 49 24 0 52 -30 52 -56 0 -13
-10 -33 -22 -44 -19 -17 -30 -20 -63 -14 -22 3 -44 7 -49 8 -5 0 -10 -55 -12
-123 l-3 -125 31 -35 c41 -48 122 -103 183 -127 42 -16 73 -18 199 -17 87 1
154 7 160 13 5 5 29 10 52 10 23 0 61 7 84 15 23 8 53 15 66 15 25 0 33 24 12
34 -7 4 -2 3 12 0 56 -15 136 3 255 56 22 9 51 21 65 25 14 4 57 23 97 41 40
19 76 34 81 34 4 0 32 11 60 25 29 14 56 25 61 25 6 0 31 11 57 25 26 14 53
25 61 25 7 0 32 9 56 19 23 11 65 27 92 36 28 9 58 21 67 26 10 5 27 9 37 9
11 0 22 4 25 9 4 5 24 12 46 16 22 4 42 11 46 16 3 5 15 9 28 9 12 0 26 4 31
8 6 5 42 17 80 26 71 17 103 25 185 46 25 7 138 14 252 17 201 5 210 4 315
-22 119 -30 231 -81 280 -127 44 -42 83 -122 83 -169 0 -84 -70 -157 -152
-159 -62 0 -59 31 4 35 40 4 72 28 92 68 30 64 19 112 -40 177 -99 109 -303
169 -575 170 -136 0 -262 -13 -349 -37 -30 -8 -75 -19 -100 -23 -25 -5 -70
-17 -100 -28 -30 -10 -80 -27 -110 -37 -30 -10 -73 -26 -95 -36 -22 -9 -51
-21 -65 -25 -14 -4 -53 -20 -88 -35 -34 -16 -65 -29 -68 -29 -3 0 -35 -14 -71
-30 -35 -17 -67 -30 -70 -30 -7 0 -141 -62 -205 -96 -27 -13 -53 -24 -59 -24
-5 0 -34 -11 -62 -24 -29 -13 -70 -29 -92 -36 -53 -16 -66 -29 -37 -36 12 -4
22 -10 22 -15 0 -5 4 -9 9 -9 12 0 155 -83 159 -92 2 -5 10 -8 18 -8 8 0 14
-5 14 -10 0 -11 -55 17 -190 98 -72 43 -76 44 -115 33 -22 -7 -67 -17 -100
-22 -33 -6 -64 -16 -70 -22 -5 -7 -35 -13 -65 -13 -30 -1 -99 -4 -152 -9 -79
-6 -111 -5 -170 10 -132 31 -257 104 -279 162 -7 20 -12 22 -28 13 -11 -5 -22
-19 -26 -30 -11 -34 -124 -109 -219 -144 -42 -16 -70 -18 -197 -14 -167 5
-168 5 -244 -64 -154 -141 -258 -228 -263 -223 -6 5 26 36 115 114 78 67 183
171 183 180 0 6 -10 13 -22 15 -13 3 -53 12 -89 20 -90 22 -118 20 -161 -9
-20 -14 -39 -25 -42 -25 -3 0 -35 -18 -71 -40 -67 -41 -85 -47 -85 -30 0 6 5
10 10 10 6 0 34 15 63 33 29 18 71 42 94 53 64 29 56 50 -27 73 -25 7 -73 26
-108 42 -35 16 -66 29 -68 29 -6 0 -80 34 -179 81 -33 15 -73 31 -90 35 -16 4
-43 15 -60 24 -16 9 -52 24 -80 34 -27 10 -59 21 -70 26 -11 5 -40 16 -65 24
-41 13 -69 23 -125 47 -11 4 -47 16 -80 25 -33 9 -67 20 -75 24 -19 10 -170
48 -235 60 -113 21 -278 32 -406 26 -284 -12 -478 -106 -519 -251 -11 -39 -10
-49 9 -87 23 -49 64 -78 110 -78 33 0 42 -14 15 -24 -53 -20 -132 25 -160 91
-49 116 59 271 226 326 46 15 135 39 190 52 69 16 360 19 432 4z m5673 -203
c45 -25 66 -59 63 -96 -3 -23 -7 -25 -48 -23 -36 2 -50 8 -72 32 -47 53 -50
111 -6 111 13 -1 41 -11 63 -24z m-6624 4 c31 -17 22 -44 -32 -99 -56 -55 -72
-60 -101 -34 -41 37 0 122 59 123 12 0 25 5 28 10 8 13 21 13 46 0z m6259 -15
c15 -40 -12 -96 -59 -117 -20 -10 -44 -18 -51 -18 -17 0 -50 29 -50 45 0 18
40 51 83 69 20 8 37 22 37 30 0 25 30 18 40 -9z m-5880 -36 c38 -28 70 -57 70
-63 0 -23 -24 -36 -66 -36 -58 0 -104 44 -104 99 0 66 9 66 100 0z m7848 -287
c28 -18 28 -33 -3 -81 -30 -48 -53 -56 -100 -36 -21 8 -55 15 -77 15 l-39 0
38 40 c21 21 48 50 60 64 18 21 27 24 60 19 21 -3 48 -13 61 -21z"/>
<path d="M14710 5280 c-8 -4 -33 -16 -55 -25 -22 -9 -48 -20 -57 -25 -10 -6
-24 -10 -31 -10 -7 0 -28 -14 -45 -31 -55 -53 -34 -93 26 -51 45 32 94 52 123
52 31 0 99 57 99 84 0 17 -34 21 -60 6z"/>
<path d="M11795 3590 c-19 -36 -20 -180 -3 -245 21 -77 37 -53 45 66 6 86 -4
209 -18 209 -4 0 -15 -13 -24 -30z"/>
<path d="M14408 3603 c-16 -4 -18 -20 -18 -146 0 -123 2 -139 14 -127 21 22
53 126 62 199 8 76 -2 89 -58 74z"/>
<path d="M12693 3574 c-15 -23 -18 -49 -18 -144 1 -124 9 -174 28 -167 21 7
34 79 38 207 4 111 2 125 -13 128 -10 2 -24 -8 -35 -24z"/>
<path d="M16173 3574 c-15 -23 -18 -49 -18 -144 1 -124 9 -174 28 -167 21 7
34 79 38 207 4 111 2 125 -13 128 -10 2 -24 -8 -35 -24z"/>
<path d="M16653 3574 c-15 -23 -18 -49 -18 -144 1 -124 9 -174 28 -167 21 7
34 79 38 207 4 111 2 125 -13 128 -10 2 -24 -8 -35 -24z"/>
<path d="M16407 2806 c-52 -56 -110 -206 -79 -206 4 0 40 33 81 74 l73 73 -13
42 c-14 47 -30 51 -62 17z"/>
<path d="M17653 2421 c-126 -105 -180 -181 -156 -220 31 -49 90 8 168 160 31
60 54 109 51 109 -3 0 -31 -22 -63 -49z"/>
<path d="M16163 3061 c-78 -65 -203 -196 -239 -251 -50 -73 -50 -71 1 -55 139
41 334 236 335 333 0 36 -33 27 -97 -27z"/>
<path d="M14920 3053 c-36 -41 -158 -269 -148 -277 6 -6 179 188 204 229 27
44 28 88 3 93 -10 2 -34 -17 -59 -45z"/>
<path d="M14067 2806 c-52 -56 -110 -206 -79 -206 4 0 40 33 81 74 l73 73 -13
42 c-14 47 -30 51 -62 17z"/>
<path d="M14540 2743 c-62 -71 -103 -193 -64 -193 16 0 122 69 141 91 6 8 14
33 18 55 6 37 4 44 -21 63 -15 11 -30 21 -34 21 -5 0 -22 -17 -40 -37z"/>
<path d="M11517 2806 c-52 -56 -110 -206 -79 -206 4 0 40 33 81 74 l73 73 -13
42 c-14 47 -30 51 -62 17z"/>
</g>
</svg>
